<?xml version="1.0" encoding="utf-8"?>
<!-- Generator: Adobe Illustrator 26.0.3, SVG Export Plug-In . SVG Version: 6.00 Build 0)  -->
<svg version="1.0" id="Layer_1" xmlns="http://www.w3.org/2000/svg" xmlns:xlink="http://www.w3.org/1999/xlink" x="0px" y="0px"
	 viewBox="0 0 383.7622986 186.4904327" style="enable-background:new 0 0 383.7622986 186.4904327;" xml:space="preserve">
<style type="text/css">
	.st0{fill-rule:evenodd;clip-rule:evenodd;fill:#FFFFFF;}
</style>
<path id="The_Rest" class="st0" d="M192.0064087,0.1393395c60.7550659,0,121.5130615,0.0259307,182.268158-0.0641153
	c3.7268982-0.0061181,6.2299805,1.2669756,8.2201233,4.2948194c0.6498108,0.9916086,1.3345947,1.7739935,1.1947327,3.0339618
	c-0.0903625,0.8243394-0.0174866,1.6667666-0.0174866,2.5021691c0,55.5881271-0.0407715,111.1756821,0.090332,166.764389
	c0.0087585,3.9599915-1.4540405,6.463028-4.4058533,8.6834259c-1.0053101,0.7546997-1.861969,1.1976166-3.0741272,1.1014709
	c-0.8305054-0.0670166-1.6696777-0.0145874-2.5030823-0.0145874c-121.3469696,0-242.6910095-0.0057983-364.0350647,0.0495605
	c-2.5467572,0-4.9623661-0.081604-6.6320314-2.0922089c-1.3200108-1.5880737-3.3509991-2.9167938-3.0246425-5.4723053
	c0.0436802-0.326355,0.005798-0.6672974,0.005798-0.9994812c0-56.422081,0.0320843-112.8447418-0.0932295-169.2674103
	c-0.0058428-2.759479,1.2296532-4.8907042,2.7303252-6.3150249C4.0824056,1.0618709,6.0930119-0.008117,8.7359152,0.0000464
	C69.8260956,0.1804231,130.916275,0.1393395,192.0064087,0.1393395z M195.841156,44.2778168
	c-11.8625946,12.3101082-23.599762,24.4896851-35.5060425,36.8426437c0,17.6787186,0,35.6954269,0,53.6917496
	c12.1568298,12.151001,24.3049164,24.2961884,36.522995,36.5112915c17.6991119,0,35.5001526,0,53.0506439,0
	c13.6342163-11.3001251,25.0538635-24.5234528,37.5982056-36.327713c0-18.2469177,0-36.2578278,0-54.1200867
	c-11.6905823-12.3917313-24.5147095-23.516758-35.2757568-36.5978851
	C233.4480591,44.2778168,214.7874298,44.2778168,195.841156,44.2778168z M193.2944031,171.2069702
	c-1.2938232-1.0752563-2.5642548-1.9727173-3.6482239-3.0566864c-6.0638733-6.0813751-11.8946075-12.3899689-17.8186188-18.6053619
	c-12.5443726-13.1679382-25.6307526-25.823082-38.4956818-38.6880112c-1.3491364-1.3520203-2.7011566-2.7040787-4.0881958-4.0911102
	c12.8328552-12.8270416,25.4617615-25.4500961,37.9128723-37.8939896c0-16.9726639,0-33.779808,0-50.6600952
	c-1.089798,1.3211651-1.9435577,2.618145-3.0450287,3.6487923c-3.1032867,2.8987598-6.4455719,5.5530453-9.4556274,8.5438766
	C138.32341,46.644783,122.0608902,62.9592094,105.77211,79.2438812c-0.7838211,0.7838593-1.596817,1.5414734-2.5700531,2.479744
	C82.1694183,60.6904335,61.4107132,39.9288063,40.2440491,18.7595291c0,17.5414543,0,34.3526878,0,51.2659149
	c12.0956535,11.1066818,23.2064018,23.2198029,35.2729263,34.4092331
	c11.9004059,11.0349808,23.3462601,22.6148682,34.264679,34.7192688
	c10.1549835,11.2564392,21.3444138,21.5774841,31.8169937,32.0530243
	C159.0413513,171.2069702,176.1751709,171.2069702,193.2944031,171.2069702z M254.8362122,171.1515961
	c0.0757751,0.0320435,0.3613281,0.2505798,0.6468811,0.2505798c22.8625488,0.0145874,45.7250977,0.0175018,68.5905762,0
	c0.7868042,0,1.6639099-0.0262146,2.342804-0.3613129c6.2358093-3.0741577,12.7250977-5.5393524,19.1531372-8.1589508
	c7.7102051-3.1412201,15.2747803-6.6291504,22.9558105-9.9918213c0.8129883-24.0805359,0.4604187-125.4034119-0.4720154-129.7815552
	c-12.7804565,5.4388103-25.5492554,10.8726768-38.4607239,16.3674393c0,36.3994293,0,72.7592392-0.0058594,109.1190109
	c0,0.1456909-0.0757446,0.3059692-0.1544189,0.4341736c-0.0845337,0.1369781-0.2214661,0.2447662-0.1544495,0.1748352
	c-11.661499,0-23.1306763,0-34.6435852,0c-0.3496399-6.0434418,0.2535706-11.9470215-0.3000488-17.5563049
	C281.1080322,144.8768463,267.9400635,158.0448151,254.8362122,171.1515961z M69.5172043,112.1390381
	c-0.507019,0.626503-0.9499054,1.320015-1.529808,1.8736649c-12.4511414,11.9266205-24.0018921,24.7536697-36.9804344,36.1733017
	c-7.7073193,6.7806854-14.6249428,14.4588318-22.2011147,22.0350037c17.3173981,0,34.2297173,0,50.9584999,0
	c6.028904-5.3907318,11.2593575-11.3234558,17.3465309-16.4577637c6.4717865-5.4577942,12.1247787-11.8858643,18.1361847-17.8914337
	C86.7384491,129.3631744,78.2531433,120.8749466,69.5172043,112.1390381z"/>
<path id="Inner_O" class="st0" d="M250.305069,79.5498581c0,18.9142151,0,37.6419296,0,56.5298996
	c-17.5097198,0-34.9319458,0-52.3834076,0c-0.6789703-4.0124664-0.906189-43.0443039-0.2913971-56.5298996
	C215.043808,79.5498581,232.4661102,79.5498581,250.305069,79.5498581z"/>
<g>
</g>
<g>
</g>
<g>
</g>
<g>
</g>
<g>
</g>
<g>
</g>
</svg>
